HIERARCHY
ROOT Hips
{
  OFFSET 5.72205e-005 65.662 3.42586
  CHANNELS 6 Xposition Yposition Zposition Zrotation Xrotation Yrotation
  JOINT Chest
  {
    OFFSET 0 8.7983 -4.7612
    CHANNELS 3 Zrotation Xrotation Yrotation
    JOINT Chest2
    {
      OFFSET 0 8.0291 0.4195
      CHANNELS 3 Zrotation Xrotation Yrotation
      JOINT Chest3
      {
        OFFSET 0 9.9351 -2.2114
        CHANNELS 3 Zrotation Xrotation Yrotation
        JOINT Neck
        {
          OFFSET 0 22.3885 -0.4656
          CHANNELS 3 Zrotation Xrotation Yrotation
          JOINT Head
          {
            OFFSET -0.0001 12.643 3.4389
            CHANNELS 3 Zrotation Xrotation Yrotation
            End Site
            {
              OFFSET 0.0001 17.6655 0.5274
            }
          }
        }
        JOINT LeftCollar
        {
          OFFSET 2.2603 21.606 7.4023
          CHANNELS 3 Zrotation Xrotation Yrotation
          JOINT LeftShoulder
          {
            OFFSET 13.5163 -1.1332 -5.0146
            CHANNELS 3 Zrotation Xrotation Yrotation
            JOINT LeftElbow
            {
              OFFSET -0.0995 -28.05 -0.2431
              CHANNELS 3 Zrotation Xrotation Yrotation
              JOINT LeftWrist
              {
                OFFSET 0.0679 -23.3996 -0.1402
                CHANNELS 3 Zrotation Xrotation Yrotation
                JOINT LeftFinger1
                {
                  OFFSET 0.7932 -9.069 2.5189
                  CHANNELS 3 Zrotation Xrotation Yrotation
                  JOINT LeftFinger11
                  {
                    OFFSET -0.8272 -3.3923 0.5977
                    CHANNELS 3 Zrotation Xrotation Yrotation
                    JOINT LeftFinger12
                    {
                      OFFSET -0.5649 -2.3158 0.4082
                      CHANNELS 3 Zrotation Xrotation Yrotation
                      End Site
                      {
                        OFFSET -0.4919 -1.6479 0.2673
                      }
                    }
                  }
                }
                JOINT LeftFinger2
                {
                  OFFSET 0.9159 -9.2044 0.2193
                  CHANNELS 3 Zrotation Xrotation Yrotation
                  JOINT LeftFinger21
                  {
                    OFFSET 0.0117 -4.1944 -0.0248
                    CHANNELS 3 Zrotation Xrotation Yrotation
                    JOINT LeftFinger22
                    {
                      OFFSET 0.0071 -2.3249 -0.0142
                      CHANNELS 3 Zrotation Xrotation Yrotation
                      End Site
                      {
                        OFFSET -0.1475 -2.0882 0.0028
                      }
                    }
                  }
                }
                JOINT LeftFinger3
                {
                  OFFSET 0.6113 -8.7231 -2.0637
                  CHANNELS 3 Zrotation Xrotation Yrotation
                  JOINT LeftFinger31
                  {
                    OFFSET -0.1927 -3.8059 -0.2383
                    CHANNELS 3 Zrotation Xrotation Yrotation
                    JOINT LeftFinger32
                    {
                      OFFSET -0.1091 -2.1688 -0.1362
                      CHANNELS 3 Zrotation Xrotation Yrotation
                      End Site
                      {
                        OFFSET -0.2358 -1.9176 -0.0906
                      }
                    }
                  }
                }
                JOINT LeftFinger4
                {
                  OFFSET -0.6151 -8.0947 -3.5641
                  CHANNELS 3 Zrotation Xrotation Yrotation
                  JOINT LeftFinger41
                  {
                    OFFSET -0.4882 -2.341 -0.6462
                    CHANNELS 3 Zrotation Xrotation Yrotation
                    JOINT LeftFinger42
                    {
                      OFFSET -0.3575 -1.7167 -0.4742
                      CHANNELS 3 Zrotation Xrotation Yrotation
                      End Site
                      {
                        OFFSET -0.4187 -1.5237 -0.3496
                      }
                    }
                  }
                }
                JOINT LeftFinger0
                {
                  OFFSET -1.42 -1.8761 1.4223
                  CHANNELS 3 Zrotation Xrotation Yrotation
                  JOINT LeftFinger01
                  {
                    OFFSET -1.1471 -3.4929 2.6334
                    CHANNELS 3 Zrotation Xrotation Yrotation
                    JOINT LeftFinger02
                    {
                      OFFSET -0.823 -2.3 1.6571
                      CHANNELS 3 Zrotation Xrotation Yrotation
                      End Site
                      {
                        OFFSET -0.5822 -1.6914 1.1582
                      }
                    }
                  }
                }
              }
            }
          }
        }
        JOINT RightCollar
        {
          OFFSET -2.2603 21.606 7.4023
          CHANNELS 3 Zrotation Xrotation Yrotation
          JOINT RightShoulder
          {
            OFFSET -13.5187 -1.1334 -5.0155
            CHANNELS 3 Zrotation Xrotation Yrotation
            JOINT RightElbow
            {
              OFFSET 0.0994 -28.0499 -0.2431
              CHANNELS 3 Zrotation Xrotation Yrotation
              JOINT RightWrist
              {
                OFFSET -0.0679 -23.3996 -0.1402
                CHANNELS 3 Zrotation Xrotation Yrotation
                JOINT RightFinger1
                {
                  OFFSET -0.7932 -9.0691 2.5189
                  CHANNELS 3 Zrotation Xrotation Yrotation
                  JOINT RightFinger11
                  {
                    OFFSET 0.8272 -3.3923 0.5977
                    CHANNELS 3 Zrotation Xrotation Yrotation
                    JOINT RightFinger12
                    {
                      OFFSET 0.565 -2.3158 0.4082
                      CHANNELS 3 Zrotation Xrotation Yrotation
                      End Site
                      {
                        OFFSET 0.4919 -1.6479 0.2673
                      }
                    }
                  }
                }
                JOINT RightFinger2
                {
                  OFFSET -0.916 -9.2044 0.2193
                  CHANNELS 3 Zrotation Xrotation Yrotation
                  JOINT RightFinger21
                  {
                    OFFSET -0.0117 -4.1944 -0.0248
                    CHANNELS 3 Zrotation Xrotation Yrotation
                    JOINT RightFinger22
                    {
                      OFFSET -0.0071 -2.3249 -0.0142
                      CHANNELS 3 Zrotation Xrotation Yrotation
                      End Site
                      {
                        OFFSET 0.1475 -2.0882 0.0028
                      }
                    }
                  }
                }
                JOINT RightFinger3
                {
                  OFFSET -0.6113 -8.7231 -2.0637
                  CHANNELS 3 Zrotation Xrotation Yrotation
                  JOINT RightFinger31
                  {
                    OFFSET 0.1927 -3.8059 -0.2383
                    CHANNELS 3 Zrotation Xrotation Yrotation
                    JOINT RightFinger32
                    {
                      OFFSET 0.1091 -2.1688 -0.1362
                      CHANNELS 3 Zrotation Xrotation Yrotation
                      End Site
                      {
                        OFFSET 0.2358 -1.9176 -0.0906
                      }
                    }
                  }
                }
                JOINT RightFinger4
                {
                  OFFSET 0.6151 -8.0947 -3.564
                  CHANNELS 3 Zrotation Xrotation Yrotation
                  JOINT RightFinger41
                  {
                    OFFSET 0.4882 -2.341 -0.6462
                    CHANNELS 3 Zrotation Xrotation Yrotation
                    JOINT RightFinger42
                    {
                      OFFSET 0.3574 -1.7166 -0.4742
                      CHANNELS 3 Zrotation Xrotation Yrotation
                      End Site
                      {
                        OFFSET 0.4187 -1.5237 -0.3496
                      }
                    }
                  }
                }
                JOINT RightFinger0
                {
                  OFFSET 1.4199 -1.8761 1.4221
                  CHANNELS 3 Zrotation Xrotation Yrotation
                  JOINT RightFinger01
                  {
                    OFFSET 1.1472 -3.4929 2.6336
                    CHANNELS 3 Zrotation Xrotation Yrotation
                    JOINT RightFinger02
                    {
                      OFFSET 0.8229 -2.3 1.6571
                      CHANNELS 3 Zrotation Xrotation Yrotation
                      End Site
                      {
                        OFFSET 0.5822 -1.6914 1.1582
                      }
                    }
                  }
                }
              }
            }
          }
        }
      }
    }
  }
  JOINT RightHip
  {
    OFFSET -9.412 3.9771 -0.7758
    CHANNELS 3 Zrotation Xrotation Yrotation
    JOINT RightKnee
    {
      OFFSET -0.7531 -40.938 0
      CHANNELS 3 Zrotation Xrotation Yrotation
      JOINT RightAnkle
      {
        OFFSET 0 -40.1986 0
        CHANNELS 3 Zrotation Xrotation Yrotation
        JOINT RightToe
        {
          OFFSET 0 -4.4182 9.239
          CHANNELS 3 Zrotation Xrotation Yrotation
          End Site
          {
            OFFSET 0 0 6.1981
          }
        }
      }
    }
  }
  JOINT LeftHip
  {
    OFFSET 9.4119 3.9773 -0.7758
    CHANNELS 3 Zrotation Xrotation Yrotation
    JOINT LeftKnee
    {
      OFFSET 0.7532 -40.9383 0
      CHANNELS 3 Zrotation Xrotation Yrotation
      JOINT LeftAnkle
      {
        OFFSET 0 -40.1986 0
        CHANNELS 3 Zrotation Xrotation Yrotation
        JOINT LeftToe
        {
          OFFSET 0 -4.4182 9.239
          CHANNELS 3 Zrotation Xrotation Yrotation
          End Site
          {
            OFFSET 0 0 6.1981
          }
        }
      }
    }
  }
}
MOTION
Frames:	4
Frame Time:	0.0333333
39.9207 65.6969 7.43587 3.3783e-008 0.199953 6.55959e-008 -0.0392016 -0.167955 -0.12516 -0.0787706 -0.335824 -0.250436 -0.0787706 -0.335824 -0.250436 2.78794e-005 28.2104 -0.000140486 2.89685e-008 -0.264036 -3.90096e-008 -4.95978 0.111368 -4.84088 32.6222 17.0849 -2.92926 -45.7275 -33.9062 -15.2522 -6.88369 1.25908 -0.138315 2.41248e-007 2.26857e-008 7.99202e-007 2.64834e-031 3.18055e-015 -4.77083e-015 6.78002e-006 7.52857e-006 2.98056e-006 2.41248e-007 2.26857e-008 7.99202e-007 -0.0127971 0.0023313 8.64581e-005 -2.38542e-015 -3.18055e-015 -0 2.41248e-007 2.26857e-008 7.99202e-007 -0.0160477 0.00300174 0.000857964 1.25673e-006 -1.42667e-006 3.28022e-007 2.41248e-007 2.26857e-008 7.99202e-007 -0.0125769 0.00311959 0.00282547 3.52845e-006 5.84148e-006 1.84524e-007 2.41248e-007 2.26857e-008 7.99202e-007 2.64834e-031 3.18055e-015 -4.77083e-015 6.78002e-006 7.52857e-006 2.98056e-006 4.12041 0.391193 -0.623232 -34.225 14.987 7.91817 45.7172 -33.9045 15.4862 6.87392 1.25128 0.31306 2.78299e-015 3.18055e-015 -4.77083e-015 -4.77083e-015 -3.18055e-015 1.59028e-015 -2.3298e-007 1.98463e-008 -8.05897e-007 2.78299e-015 3.18055e-015 -4.77083e-015 0.012948 0.00231783 -8.51492e-005 -1.53059e-006 2.47909e-006 -2.27781e-006 2.78299e-015 3.18055e-015 -4.77083e-015 0.0163228 0.00304121 -0.000874418 1.0727e-006 -1.82248e-006 -2.15552e-006 2.78299e-015 3.18055e-015 -4.77083e-015 0.0145837 0.00368815 -0.00326636 -4.65776e-007 3.41033e-006 -1.61184e-006 2.78299e-015 3.18055e-015 -4.77083e-015 -4.77083e-015 -3.18055e-015 1.59028e-015 -2.3298e-007 1.98463e-008 -8.05897e-007 -3.24799 -0.60831 -8.83455 6.0484 13.6584 -1.42423 -11.8445 -4.9937 2.78312 6.7317e-008 -8.50893e-007 -4.20123e-007 4.98083 -1.22338 4.71894 -3.16214 14.4095 0.72077 6.75886 -5.05174 -0.498739 3.97569e-016 -3.18055e-015 -7.95139e-016 
39.9207 65.6884 7.34184 -2.23732e-008 0.33326 -2.90855e-009 -0.0392808 -0.147847 -0.12498 -0.0788844 -0.295608 -0.250063 -0.0788843 -0.295608 -0.250063 0.00014545 27.8843 -0.000761996 5.46532e-008 -0.264041 -1.09723e-007 -4.95995 0.110786 -4.84148 32.6222 17.0849 -2.92928 -45.7274 -33.9061 -15.2521 -6.88374 1.25908 -0.138356 2.78299e-015 2.48262e-006 -1.59028e-015 6.36111e-015 -6.36111e-015 -3.18055e-015 6.05907e-006 6.43814e-007 -2.28542e-006 2.78299e-015 2.48262e-006 -1.59028e-015 -0.0128301 0.00232433 8.73679e-005 -1.01847e-006 1.45156e-006 4.72343e-007 2.78299e-015 2.48262e-006 -1.59028e-015 -0.0160612 0.00299984 0.00085507 3.97569e-015 -2.24091e-008 1.59028e-015 2.78299e-015 2.48262e-006 -1.59028e-015 -0.0125656 0.00311879 0.00282353 -2.38085e-007 -2.24025e-008 -8.00393e-007 2.78299e-015 2.48262e-006 -1.59028e-015 6.36111e-015 -6.36111e-015 -3.18055e-015 6.05907e-006 6.43814e-007 -2.28542e-006 4.12024 0.390524 -0.623735 -34.225 14.987 7.91815 45.7172 -33.9045 15.4862 6.87393 1.25129 0.313058 6.75868e-015 3.18055e-015 3.18055e-015 1.15118e-006 1.48889e-006 2.9756e-007 1.98785e-015 3.18055e-015 -0 6.75868e-015 3.18055e-015 3.18055e-015 0.012921 0.00231597 -8.66801e-005 3.97569e-016 -3.18055e-015 1.59028e-015 6.75868e-015 3.18055e-015 3.18055e-015 0.0163423 0.0030385 -0.000873334 2.38542e-015 3.18055e-015 -0 6.75868e-015 3.18055e-015 3.18055e-015 0.014611 0.00369136 -0.00326772 3.97569e-015 -3.18055e-015 1.59028e-015 6.75868e-015 3.18055e-015 3.18055e-015 1.15118e-006 1.48889e-006 2.9756e-007 1.98785e-015 3.18055e-015 -0 -3.24536 -0.845978 -8.7384 6.0481 13.656 -1.42405 -11.844 -4.9934 2.78315 3.34172e-006 -4.75185e-006 4.87518e-007 4.9807 -1.46123 4.67776 -3.16199 14.4086 0.720769 6.75858 -5.05151 -0.498791 -1.39149e-015 -1.59028e-015 7.95139e-016 
39.9206 65.6799 7.2478 -8.95213e-009 0.466573 -3.61688e-009 -0.0393578 -0.12776 -0.124795 -0.0789964 -0.255444 -0.249685 -0.0789963 -0.255444 -0.249685 0.000256518 27.5582 -0.00139458 4.10332e-008 -0.264047 6.30257e-008 -4.96012 0.110367 -4.84208 32.6221 17.085 -2.92923 -45.7274 -33.9062 -15.2523 -6.88367 1.25909 -0.138312 -2.78299e-015 3.18055e-015 -0 1.98785e-015 3.18055e-015 -0 2.35083e-007 2.2144e-008 8.01528e-007 -2.78299e-015 3.18055e-015 -0 -0.0127984 0.00231943 8.69283e-005 -2.35011e-007 -2.93896e-007 -8.01537e-007 -2.78299e-015 3.18055e-015 -0 -0.0160229 0.00298907 0.00085759 -3.57812e-015 6.36111e-015 1.59028e-015 -2.78299e-015 3.18055e-015 -0 -0.0126166 0.0031228 0.00282887 1.72655e-006 -1.42059e-006 1.93099e-006 -2.78299e-015 3.18055e-015 -0 1.98785e-015 3.18055e-015 -0 2.35083e-007 2.2144e-008 8.01528e-007 4.12006 0.390015 -0.624261 -34.225 14.9869 7.91818 45.7172 -33.9045 15.4861 6.87391 1.25128 0.31307 1.99576e-006 -2.3388e-008 1.08552e-006 1.76905e-006 1.519e-006 2.77441e-007 -4.37326e-015 0 -3.18055e-015 1.99576e-006 -2.3388e-008 1.08552e-006 0.012944 0.00231423 -8.82678e-005 3.18055e-015 0 -1.59028e-015 1.99576e-006 -2.3388e-008 1.08552e-006 0.0163608 0.00303528 -0.000875819 -4.53241e-007 3.86843e-008 -1.6162e-006 1.99576e-006 -2.3388e-008 1.08552e-006 0.0145759 0.00367102 -0.00326273 1.19271e-015 -3.18055e-015 -0 1.99576e-006 -2.3388e-008 1.08552e-006 1.76905e-006 1.519e-006 2.77441e-007 -4.37326e-015 0 -3.18055e-015 -3.24249 -1.08293 -8.64231 6.04802 13.6535 -1.42379 -11.8436 -4.99354 2.78314 2.57262e-006 -2.25267e-006 -5.92832e-008 4.98054 -1.69739 4.63663 -3.16207 14.406 0.720584 6.7583 -5.05127 -0.498824 6.2178e-008 -8.54118e-007 -4.21668e-007 
39.9206 65.6715 7.15374 -2.65489e-009 0.599891 -1.83012e-010 -0.0394795 -0.107828 -0.124751 -0.0791939 -0.21557 -0.249577 -0.0791964 -0.215577 -0.249585 0.000221036 27.2326 -0.00124871 -1.76315e-008 -0.264029 -2.72533e-008 -4.96009 0.110662 -4.84193 32.6221 17.085 -2.92925 -45.7274 -33.9062 -15.2523 -6.8837 1.25909 -0.138322 -2.31994e-007 -1.72326e-006 -8.02671e-007 -5.42605e-006 -4.90434e-006 -6.29512e-006 -7.95139e-016 -3.18055e-015 -1.59028e-015 -2.31994e-007 -1.72326e-006 -8.02671e-007 -0.0128348 0.00232532 8.22391e-005 5.56597e-015 -2.18684e-008 -0 -2.31994e-007 -1.72326e-006 -8.02671e-007 -0.0160112 0.00298353 0.000850022 -1.98785e-015 0 -1.59028e-015 -2.31994e-007 -1.72326e-006 -8.02671e-007 -0.0126975 0.00314391 0.0028466 3.97569e-016 -1.09291e-008 3.18055e-015 -2.31994e-007 -1.72326e-006 -8.02671e-007 -5.42605e-006 -4.90434e-006 -6.29512e-006 -7.95139e-016 -3.18055e-015 -1.59028e-015 4.1201 0.39033 -0.624158 -34.225 14.9869 7.9182 45.7172 -33.9045 15.4861 6.87394 1.2513 0.313055 -3.18055e-015 0 1.59028e-015 1.19271e-015 1.59028e-015 1.59028e-015 -4.4713e-007 1.90971e-008 -1.61831e-006 -3.18055e-015 0 1.59028e-015 0.0129526 0.0023218 -9.01609e-005 2.38542e-015 -3.18055e-015 3.18055e-015 -3.18055e-015 0 1.59028e-015 0.0163448 0.00303316 -0.000873333 9.93923e-015 -3.18055e-015 -0 -3.18055e-015 0 1.59028e-015 0.0146586 0.00369361 -0.0032792 -2.23473e-007 1.90829e-008 -8.09181e-007 -3.18055e-015 0 1.59028e-015 1.19271e-015 1.59028e-015 1.59028e-015 -4.4713e-007 1.90971e-008 -1.61831e-006 -3.23926 -1.31805 -8.54619 6.0482 13.6488 -1.42329 -11.8431 -4.99347 2.78315 -1.49089e-015 -1.59028e-015 -1.59028e-015 4.98015 -1.93451 4.59548 -3.16205 14.4042 0.720459 6.75803 -5.05089 -0.498866 3.67752e-015 0 1.19271e-015 
